<svg xmlns="http://www.w3.org/2000/svg" xmlns:svg="http://www.w3.org/2000/svg" id="svg2" width="1333.333" height="1333.333" version="1.1" viewBox="0 0 1333.333 1333.333" xml:space="preserve"><defs id="defs6"><clipPath id="clipPath18" clipPathUnits="userSpaceOnUse"><path id="path16" d="M 0,1000 H 1000 V 0 H 0 Z"/></clipPath></defs><g id="g8" transform="matrix(1.3333333,0,0,-1.3333333,0,1333.3333)"><path d="M 0,0 H 1000 V 1000 H 0 Z" style="display:none;fill:#000;fill-opacity:1;fill-rule:nonzero;stroke:none" id="path10"/><g id="g12"><g id="g14" clip-path="url(#clipPath18)"><g id="g20" transform="translate(614.7236,622.46)"><path d="m 0,0 c -0.909,-45.4 -26.02,-84.86 -62.949,-106 v -0.01 c -18.28,-10.47 -39.45,-16.45 -62.021,-16.45 h -72.83 l -157.11,272.12 c 13.1,-13.63 31.52,-22.12 51.92,-22.12 h 176.54 C -56.18,127.54 1.41,70.25 0,0" style="fill:#9b0000;fill-opacity:1;fill-rule:nonzero;stroke:none" id="path22"/></g><g id="g24" transform="translate(736.2041,125)"><path d="m 0,0 h -88.92 c -8.57,0 -16.49,4.57 -20.78,12 L -247.11,250.01 -319.28,375 h 72.83 c 22.57,0 43.74,5.98 62.02,16.45 L -122.38,283.98 20.79,36 C 30.03,20 18.479,0 0,0" style="fill:#9b0000;fill-opacity:1;fill-rule:nonzero;stroke:none" id="path26"/></g><g id="g28" transform="translate(416.9341,750)"><path d="m 0,0 h -105.2 c -20.4,0 -38.82,8.49 -51.92,22.12 l -0.01,0.01 -8.04,13.94 c -13.74,23.81 -5.58,54.25 18.22,68 l 22.04,12.72 c 23.81,13.75 54.25,5.59 68,-18.22 z" style="fill:#b71c1c;fill-opacity:1;fill-rule:nonzero;stroke:none" id="path30"/></g><g id="g32" transform="translate(739.7441,626.0098)"><path d="m 0,0 c 0.37,-92.33 -50.73,-173.43 -125.92,-217.029 -36.86,-21.381 -79.52,-33.731 -124.73,-33.971 -0.45,-0.01 -0.91,-0.01 -1.37,-0.01 H -351 c -13.25,0 -23.99,-10.74 -23.99,-23.99 v -201.93 c 0,-13.299 -10.79,-24.08 -24.08,-24.08 h -76.84 c -13.3,0 -24.08,10.79 -24.08,24.09 v 278.91 c 0,39.77 32.23,72 72,72 h 178 c 22.57,0 43.74,5.98 62.02,16.45 v 0.01 c 36.93,21.14 62.04,60.6 62.949,106 1.411,70.25 -56.179,127.54 -126.449,127.54 h -176.54 c -20.4,0 -38.82,8.49 -51.92,22.12 l -0.01,0.01 c -12.42,12.94 -20.05,30.5 -20.05,49.85 v 28.94 c 0,13.3 10.78,24.08 24.08,24.08 h 225.92 C -112.26,248.99 -0.54,137.61 0,0" style="fill:#d50000;fill-opacity:1;fill-rule:nonzero;stroke:none" id="path34"/></g></g></g></g></svg>