<?xml version="1.0" encoding="UTF-8"?>
<svg xmlns="http://www.w3.org/2000/svg" xmlns:xlink="http://www.w3.org/1999/xlink" width="24px" height="24px" viewBox="0 0 24 24" version="1.1">
<g id="surface1">
<path style=" stroke:none;fill-rule:nonzero;fill:rgb(60.784314%,0%,0%);fill-opacity:1;" d="M 14.757812 9.0625 C 14.734375 10.152344 14.132812 11.101562 13.246094 11.609375 C 12.808594 11.859375 12.300781 12.003906 11.757812 12.003906 L 10.007812 12.003906 L 6.238281 5.46875 C 6.550781 5.796875 6.992188 6 7.484375 6 L 11.722656 6 C 13.410156 6 14.789062 7.375 14.757812 9.0625 "/>
<path style=" stroke:none;fill-rule:nonzero;fill:rgb(60.784314%,0%,0%);fill-opacity:1;" d="M 17.671875 21.003906 L 15.539062 21.003906 C 15.332031 21.003906 15.144531 20.894531 15.039062 20.71875 L 11.742188 15.003906 L 10.007812 12.003906 L 11.757812 12.003906 C 12.300781 12.003906 12.808594 11.859375 13.246094 11.609375 L 14.734375 14.1875 L 18.171875 20.140625 C 18.394531 20.523438 18.117188 21.003906 17.671875 21.003906 "/>
<path style=" stroke:none;fill-rule:nonzero;fill:rgb(71.764706%,10.980392%,10.980392%);fill-opacity:1;" d="M 10.007812 6 L 7.484375 6 C 6.992188 6 6.550781 5.796875 6.238281 5.46875 L 6.042969 5.136719 C 5.714844 4.5625 5.910156 3.832031 6.480469 3.503906 L 7.011719 3.199219 C 7.582031 2.867188 8.3125 3.0625 8.644531 3.636719 Z M 10.007812 6 "/>
<path style=" stroke:none;fill-rule:nonzero;fill:rgb(83.529412%,0%,0%);fill-opacity:1;" d="M 17.757812 8.976562 C 17.765625 11.195312 16.539062 13.140625 14.734375 14.1875 C 13.851562 14.703125 12.828125 14.996094 11.742188 15.003906 C 11.730469 15.003906 11.71875 15.003906 11.707031 15.003906 L 9.332031 15.003906 C 9.015625 15.003906 8.757812 15.261719 8.757812 15.578125 L 8.757812 20.425781 C 8.757812 20.746094 8.496094 21.003906 8.179688 21.003906 L 6.332031 21.003906 C 6.015625 21.003906 5.753906 20.746094 5.753906 20.425781 L 5.753906 13.730469 C 5.753906 12.777344 6.527344 12.003906 7.484375 12.003906 L 11.757812 12.003906 C 12.300781 12.003906 12.808594 11.859375 13.246094 11.609375 C 14.132812 11.101562 14.734375 10.152344 14.757812 9.0625 C 14.789062 7.375 13.410156 6 11.722656 6 L 7.484375 6 C 6.992188 6 6.550781 5.796875 6.238281 5.46875 C 5.9375 5.160156 5.753906 4.738281 5.753906 4.273438 L 5.753906 3.578125 C 5.753906 3.257812 6.015625 3 6.332031 3 L 11.757812 3 C 15.0625 3 17.746094 5.675781 17.757812 8.976562 "/>
</g>
</svg>
