<?xml version="1.0" encoding="UTF-8"?>
<svg xmlns="http://www.w3.org/2000/svg" xmlns:xlink="http://www.w3.org/1999/xlink" width="16px" height="16px" viewBox="0 0 16 16" version="1.1">
<g id="surface1">
<path style=" stroke:none;fill-rule:nonzero;fill:rgb(60.784314%,0%,0%);fill-opacity:1;" d="M 9.839844 6.042969 C 9.824219 6.769531 9.421875 7.402344 8.832031 7.738281 C 8.539062 7.90625 8.199219 8.003906 7.839844 8.003906 L 6.671875 8.003906 L 4.160156 3.644531 C 4.367188 3.863281 4.660156 4 4.988281 4 L 7.816406 4 C 8.941406 4 9.859375 4.917969 9.839844 6.042969 "/>
<path style=" stroke:none;fill-rule:nonzero;fill:rgb(60.784314%,0%,0%);fill-opacity:1;" d="M 11.78125 14.003906 L 10.359375 14.003906 C 10.222656 14.003906 10.097656 13.929688 10.027344 13.8125 L 7.828125 10.003906 L 6.671875 8.003906 L 7.839844 8.003906 C 8.199219 8.003906 8.539062 7.90625 8.832031 7.738281 L 9.824219 9.457031 L 12.113281 13.425781 C 12.261719 13.683594 12.078125 14.003906 11.78125 14.003906 "/>
<path style=" stroke:none;fill-rule:nonzero;fill:rgb(71.764706%,10.980392%,10.980392%);fill-opacity:1;" d="M 6.671875 4 L 4.988281 4 C 4.660156 4 4.367188 3.863281 4.160156 3.644531 L 4.027344 3.425781 C 3.808594 3.042969 3.941406 2.554688 4.320312 2.335938 L 4.675781 2.132812 C 5.054688 1.910156 5.542969 2.042969 5.761719 2.425781 Z M 6.671875 4 "/>
<path style=" stroke:none;fill-rule:nonzero;fill:rgb(83.529412%,0%,0%);fill-opacity:1;" d="M 11.839844 5.984375 C 11.84375 7.464844 11.027344 8.761719 9.824219 9.457031 C 9.234375 9.800781 8.550781 9.996094 7.828125 10.003906 C 7.820312 10.003906 7.8125 10.003906 7.804688 10.003906 L 6.222656 10.003906 C 6.011719 10.003906 5.839844 10.175781 5.839844 10.386719 L 5.839844 13.617188 C 5.839844 13.832031 5.664062 14.003906 5.453125 14.003906 L 4.222656 14.003906 C 4.011719 14.003906 3.835938 13.832031 3.835938 13.617188 L 3.835938 9.152344 C 3.835938 8.519531 4.351562 8.003906 4.988281 8.003906 L 7.839844 8.003906 C 8.199219 8.003906 8.539062 7.90625 8.832031 7.738281 C 9.421875 7.402344 9.824219 6.769531 9.839844 6.042969 C 9.859375 4.917969 8.941406 4 7.816406 4 L 4.988281 4 C 4.660156 4 4.367188 3.863281 4.160156 3.644531 C 3.957031 3.441406 3.835938 3.160156 3.835938 2.847656 L 3.835938 2.386719 C 3.835938 2.171875 4.011719 2 4.222656 2 L 7.839844 2 C 10.042969 2 11.832031 3.785156 11.839844 5.984375 "/>
</g>
</svg>
